<?xml version="1.0" encoding="UTF-8" standalone="no"?>
<!-- Created with Inkscape (http://www.inkscape.org/) -->

<svg
   width="41.875702mm"
   height="48.520699mm"
   viewBox="0 0 41.875702 48.520699"
   version="1.1"
   id="svg6736"
   inkscape:version="1.2.2 (b0a8486541, 2022-12-01)"
   sodipodi:docname="logo.svg"
   xmlns:inkscape="http://www.inkscape.org/namespaces/inkscape"
   xmlns:sodipodi="http://sodipodi.sourceforge.net/DTD/sodipodi-0.dtd"
   xmlns:xlink="http://www.w3.org/1999/xlink"
   xmlns="http://www.w3.org/2000/svg"
   xmlns:svg="http://www.w3.org/2000/svg">
  <sodipodi:namedview
     id="namedview6738"
     pagecolor="#ffffff"
     bordercolor="#000000"
     borderopacity="0.25"
     inkscape:showpageshadow="2"
     inkscape:pageopacity="0.0"
     inkscape:pagecheckerboard="0"
     inkscape:deskcolor="#d1d1d1"
     inkscape:document-units="mm"
     showgrid="false"
     inkscape:zoom="1.0885159"
     inkscape:cx="90.030839"
     inkscape:cy="239.31667"
     inkscape:window-width="1904"
     inkscape:window-height="1027"
     inkscape:window-x="8"
     inkscape:window-y="8"
     inkscape:window-maximized="0"
     inkscape:current-layer="text1297-3" />
  <defs
     id="defs6733">
    <linearGradient
       inkscape:collect="always"
       id="linearGradient7639">
      <stop
         style="stop-color:#3272c2;stop-opacity:0.12000013;"
         offset="0"
         id="stop7643" />
      <stop
         style="stop-color:#3272c2;stop-opacity:1;"
         offset="1"
         id="stop7635" />
    </linearGradient>
    <radialGradient
       inkscape:collect="always"
       xlink:href="#linearGradient7639"
       id="radialGradient7641"
       cx="122.83262"
       cy="99.999229"
       fx="122.83262"
       fy="99.999229"
       r="91.894394"
       gradientTransform="matrix(1,0,0,1.1544869,0,-19.554339)"
       gradientUnits="userSpaceOnUse" />
  </defs>
  <g
     inkscape:label="Layer 1"
     inkscape:groupmode="layer"
     id="layer1"
     transform="translate(-80.81215,-87.802146)">
    <path
       sodipodi:type="star"
       style="color:#000000;display:inline;overflow:visible;visibility:visible;fill:url(#radialGradient7641);fill-opacity:1;fill-rule:nonzero;stroke:#1b3d64;stroke-width:4.38096;stroke-linecap:round;stroke-linejoin:miter;stroke-miterlimit:4;stroke-dasharray:none;stroke-dashoffset:0;stroke-opacity:1;marker:none;enable-background:accumulate"
       id="path17178"
       sodipodi:sides="6"
       sodipodi:cx="121.90476"
       sodipodi:cy="126.57602"
       sodipodi:r1="103.56153"
       sodipodi:r2="103.56153"
       sodipodi:arg1="-0.52327829"
       sodipodi:arg2="0.0003204856"
       inkscape:flatsided="true"
       inkscape:rounded="0"
       inkscape:randomized="0"
       d="m 211.60827,74.824 -0.0332,103.56153 -89.70351,51.75202 -89.670315,-51.80951 0.03319,-103.561527 89.703505,-51.752019 z"
       inkscape:transform-center-x="0.32645456"
       inkscape:transform-center-y="-1.460707"
       transform="matrix(0.22784689,0,0,0.22867518,73.97438,83.117701)" />
    <g
       aria-label="nonmem2rx"
       transform="scale(1.0750625,0.93017848)"
       id="text1297"
       style="font-size:6.72547px;font-family:Arial;-inkscape-font-specification:Arial;display:inline;fill:#ffffff;stroke:#1b3d64;stroke-width:1.16">
      <path
         d="m 78.488215,130.76389 h 1.4258 V 130.663 c -0.336273,-0.0202 -0.443881,-0.1076 -0.443881,-0.34972 v -1.88986 c 0.322823,-0.30264 0.470783,-0.38335 0.692723,-0.38335 0.329549,0 0.49096,0.20849 0.49096,0.65237 v 1.40562 c -0.01345,0.43716 -0.09416,0.54477 -0.423705,0.56494 v 0.10089 H 81.62901 V 130.663 c -0.329548,-0.0336 -0.403528,-0.11433 -0.410254,-0.44388 v -1.54013 c 0,-0.63219 -0.29592,-1.00882 -0.793605,-1.00882 -0.309372,0 -0.517861,0.11433 -0.975193,0.54476 v -0.53131 l -0.04708,-0.0135 c -0.349724,0.12778 -0.57839,0.20176 -0.928114,0.30265 v 0.11433 c 0.04708,-0.0202 0.107607,-0.0269 0.181587,-0.0269 0.188313,0 0.248843,0.10088 0.248843,0.43043 v 1.66791 c -0.0067,0.39681 -0.08071,0.48424 -0.41698,0.50441 z"
         style="font-family:'Nimbus Roman';-inkscape-font-specification:'Nimbus Roman, '"
         id="path694" />
      <path
         d="m 83.41126,127.67017 c -0.881037,0 -1.486329,0.64564 -1.486329,1.57376 0,0.91466 0.625468,1.58721 1.472878,1.58721 0.847409,0 1.493054,-0.70617 1.493054,-1.64101 0,-0.88777 -0.618743,-1.51996 -1.479603,-1.51996 z m -0.08743,0.18831 c 0.56494,0 0.961743,0.64565 0.961743,1.56704 0,0.7667 -0.302647,1.21731 -0.807057,1.21731 -0.262293,0 -0.511135,-0.16141 -0.65237,-0.43043 -0.188314,-0.34973 -0.295921,-0.82051 -0.295921,-1.29802 0,-0.63892 0.309372,-1.0559 0.793605,-1.0559 z"
         style="font-family:'Nimbus Roman';-inkscape-font-specification:'Nimbus Roman, '"
         id="path696" />
      <path
         d="m 85.213686,130.76389 h 1.425799 V 130.663 c -0.336273,-0.0202 -0.443881,-0.1076 -0.443881,-0.34972 v -1.88986 c 0.322823,-0.30264 0.470783,-0.38335 0.692724,-0.38335 0.329548,0 0.490959,0.20849 0.490959,0.65237 v 1.40562 c -0.01345,0.43716 -0.09416,0.54477 -0.423705,0.56494 v 0.10089 H 88.35448 V 130.663 c -0.329548,-0.0336 -0.403528,-0.11433 -0.410254,-0.44388 v -1.54013 c 0,-0.63219 -0.29592,-1.00882 -0.793605,-1.00882 -0.309372,0 -0.517861,0.11433 -0.975193,0.54476 v -0.53131 l -0.04708,-0.0135 c -0.349724,0.12778 -0.57839,0.20176 -0.928114,0.30265 v 0.11433 c 0.04708,-0.0202 0.107607,-0.0269 0.181587,-0.0269 0.188313,0 0.248843,0.10088 0.248843,0.43043 v 1.66791 c -0.0067,0.39681 -0.08071,0.48424 -0.416979,0.50441 z"
         style="font-family:'Nimbus Roman';-inkscape-font-specification:'Nimbus Roman, '"
         id="path698" />
      <path
         d="m 88.56297,130.76389 h 1.493054 V 130.663 c -0.342999,-0.007 -0.450606,-0.0807 -0.457332,-0.34972 v -1.89658 c 0,-0.0134 0.0538,-0.0807 0.100882,-0.12779 0.168137,-0.15468 0.457332,-0.26902 0.692724,-0.26902 0.29592,0 0.443881,0.2354 0.443881,0.70618 v 1.45943 c -0.01345,0.38335 -0.08071,0.45733 -0.457332,0.4775 v 0.10089 h 1.506505 V 130.663 c -0.376626,0 -0.470783,-0.1076 -0.484234,-0.53803 v -1.69482 c 0.201764,-0.2892 0.416979,-0.41026 0.733076,-0.41026 0.383352,0 0.504411,0.18159 0.504411,0.73981 v 1.41907 c -0.01345,0.3968 -0.0538,0.44388 -0.443881,0.48423 v 0.10089 h 1.472878 V 130.663 l -0.174863,-0.0135 c -0.215215,-0.0336 -0.289195,-0.13451 -0.289195,-0.3968 v -1.38545 c 0,-0.7936 -0.262293,-1.19713 -0.780154,-1.19713 -0.390078,0 -0.733077,0.17486 -1.096252,0.56494 -0.121058,-0.38335 -0.349724,-0.56494 -0.7129,-0.56494 -0.302646,0 -0.484234,0.0874 -1.042448,0.51786 v -0.50441 l -0.04708,-0.0135 c -0.35645,0.12778 -0.585116,0.20176 -0.941566,0.30265 v 0.11433 c 0.08071,-0.0202 0.141235,-0.0269 0.215215,-0.0269 0.174863,0 0.235392,0.1076 0.235392,0.43043 v 1.70154 c -0.01345,0.37663 -0.100882,0.47078 -0.470783,0.47078 z"
         style="font-family:'Nimbus Roman';-inkscape-font-specification:'Nimbus Roman, '"
         id="path700" />
      <path
         d="m 96.431768,129.66091 c -0.322822,0.51113 -0.612017,0.70617 -1.042448,0.70617 -0.383351,0 -0.672547,-0.19504 -0.867585,-0.57839 -0.121059,-0.25557 -0.168137,-0.47078 -0.181588,-0.88776 h 2.071445 c -0.0538,-0.43716 -0.121059,-0.63219 -0.289195,-0.84741 -0.201764,-0.24212 -0.511136,-0.38335 -0.86086,-0.38335 -0.336274,0 -0.652371,0.12106 -0.907939,0.34972 -0.316097,0.27575 -0.497685,0.75326 -0.497685,1.30474 0,0.92812 0.484234,1.50651 1.257663,1.50651 0.63892,0 1.14333,-0.3968 1.4258,-1.12315 z m -2.07817,-0.97519 c 0.07398,-0.52459 0.302646,-0.77343 0.7129,-0.77343 0.410254,0 0.571665,0.18831 0.659096,0.77343 z"
         style="font-family:'Nimbus Roman';-inkscape-font-specification:'Nimbus Roman, '"
         id="path702" />
      <path
         d="m 96.781495,130.76389 h 1.493054 V 130.663 c -0.342999,-0.007 -0.450606,-0.0807 -0.457332,-0.34972 v -1.89658 c 0,-0.0134 0.0538,-0.0807 0.100882,-0.12779 0.168137,-0.15468 0.457332,-0.26902 0.692724,-0.26902 0.29592,0 0.443881,0.2354 0.443881,0.70618 v 1.45943 c -0.01345,0.38335 -0.08071,0.45733 -0.457332,0.4775 v 0.10089 h 1.506508 V 130.663 c -0.376629,0 -0.470786,-0.1076 -0.484237,-0.53803 v -1.69482 c 0.201764,-0.2892 0.416977,-0.41026 0.733077,-0.41026 0.38335,0 0.50441,0.18159 0.50441,0.73981 v 1.41907 c -0.0134,0.3968 -0.0538,0.44388 -0.44388,0.48423 v 0.10089 h 1.47288 V 130.663 l -0.17487,-0.0135 c -0.21521,-0.0336 -0.28919,-0.13451 -0.28919,-0.3968 v -1.38545 c 0,-0.7936 -0.26229,-1.19713 -0.78016,-1.19713 -0.39007,0 -0.733072,0.17486 -1.096247,0.56494 -0.121058,-0.38335 -0.349724,-0.56494 -0.7129,-0.56494 -0.302646,0 -0.484234,0.0874 -1.042448,0.51786 v -0.50441 l -0.04708,-0.0135 c -0.35645,0.12778 -0.585116,0.20176 -0.941566,0.30265 v 0.11433 c 0.08071,-0.0202 0.141235,-0.0269 0.215215,-0.0269 0.174862,0 0.235392,0.1076 0.235392,0.43043 v 1.70154 c -0.01345,0.37663 -0.100882,0.47078 -0.470783,0.47078 z"
         style="font-family:'Nimbus Roman';-inkscape-font-specification:'Nimbus Roman, '"
         id="path704" />
      <path
         d="m 105.1009,129.8425 -0.0874,-0.0336 c -0.24884,0.39008 -0.32282,0.43715 -0.63892,0.44388 h -1.60739 l 1.12988,-1.18368 c 0.59857,-0.62547 0.86086,-1.13661 0.86086,-1.66119 0,-0.67255 -0.54476,-1.19041 -1.24421,-1.19041 -0.3699,0 -0.71963,0.14796 -0.96847,0.41698 -0.21521,0.22866 -0.3161,0.44388 -0.43043,0.92139 l 0.14124,0.0336 c 0.26901,-0.65909 0.50441,-0.87431 0.97519,-0.87431 0.57166,0 0.94829,0.38335 0.94829,0.94829 0,0.53132 -0.30937,1.15006 -0.87431,1.74863 l -1.19713,1.27111 v 0.0807 h 2.62293 z"
         style="font-family:'Nimbus Roman';-inkscape-font-specification:'Nimbus Roman, '"
         id="path706" />
      <path
         d="m 105.30266,130.76389 h 1.61412 V 130.663 c -0.45061,-0.0135 -0.55822,-0.1076 -0.57167,-0.50441 v -1.51323 c 0,-0.21521 0.28247,-0.55149 0.47079,-0.55149 0.0404,0 0.10088,0.0336 0.17486,0.10089 0.10088,0.10088 0.18159,0.13451 0.26902,0.13451 0.16141,0 0.26229,-0.11434 0.26229,-0.30265 0,-0.22194 -0.14124,-0.35645 -0.3699,-0.35645 -0.28247,0 -0.47078,0.14796 -0.80706,0.63219 v -0.61874 l -0.0336,-0.0135 c -0.37663,0.14796 -0.61875,0.24212 -0.99537,0.36317 v 0.10761 c 0.0941,-0.0202 0.15468,-0.0269 0.23539,-0.0269 0.16813,0 0.22866,0.10761 0.22866,0.40353 v 1.68137 c -0.0134,0.34972 -0.0538,0.39007 -0.47751,0.46405 z"
         style="font-family:'Nimbus Roman';-inkscape-font-specification:'Nimbus Roman, '"
         id="path708" />
      <path
         d="m 109.48591,130.76389 h 1.35182 V 130.663 c -0.20849,0 -0.343,-0.1076 -0.55149,-0.40352 l -0.86086,-1.3182 0.55822,-0.80705 c 0.12778,-0.18159 0.32282,-0.28247 0.54476,-0.29592 v -0.10089 h -1.06262 v 0.10089 c 0.20176,0.0134 0.26901,0.0538 0.26901,0.14796 0,0.0807 -0.0807,0.22866 -0.24884,0.43715 -0.0336,0.0404 -0.11433,0.16141 -0.20176,0.29592 l -0.0538,-0.0807 c -0.10088,-0.15469 -0.16141,-0.24212 -0.17486,-0.26902 -0.12778,-0.20849 -0.17486,-0.3161 -0.17486,-0.38335 0,-0.10089 0.0874,-0.14124 0.2892,-0.14796 v -0.10089 h -1.39218 v 0.10089 h 0.0605 c 0.20177,0 0.30937,0.0874 0.51786,0.40352 l 0.6322,0.96847 -0.76671,1.1097 c -0.20176,0.27575 -0.26901,0.32283 -0.49096,0.343 v 0.10089 h 0.9752 V 130.663 c -0.19504,0 -0.26902,-0.0336 -0.26902,-0.12106 0,-0.0471 0.0404,-0.1345 0.13451,-0.27574 l 0.53131,-0.82723 0.61202,0.94156 c 0.0269,0.0404 0.0404,0.074 0.0404,0.12106 0,0.12106 -0.0471,0.14796 -0.26902,0.16141 z"
         style="font-family:'Nimbus Roman';-inkscape-font-specification:'Nimbus Roman, '"
         id="path710" />
    </g>
    <g
       aria-label="nonmem2rx"
       transform="scale(1.0750625,0.93017848)"
       id="text1297-3"
       style="font-size:6.72547px;font-family:Arial;-inkscape-font-specification:Arial;display:inline;fill:#ffffff;stroke-width:0.560457">
      <path
         d="m 78.488215,130.76389 h 1.4258 V 130.663 c -0.336273,-0.0202 -0.443881,-0.1076 -0.443881,-0.34972 v -1.88986 c 0.322823,-0.30264 0.470783,-0.38335 0.692723,-0.38335 0.329549,0 0.49096,0.20849 0.49096,0.65237 v 1.40562 c -0.01345,0.43716 -0.09416,0.54477 -0.423705,0.56494 v 0.10089 H 81.62901 V 130.663 c -0.329548,-0.0336 -0.403528,-0.11433 -0.410254,-0.44388 v -1.54013 c 0,-0.63219 -0.29592,-1.00882 -0.793605,-1.00882 -0.309372,0 -0.517861,0.11433 -0.975193,0.54476 v -0.53131 l -0.04708,-0.0135 c -0.349724,0.12778 -0.57839,0.20176 -0.928114,0.30265 v 0.11433 c 0.04708,-0.0202 0.107607,-0.0269 0.181587,-0.0269 0.188313,0 0.248843,0.10088 0.248843,0.43043 v 1.66791 c -0.0067,0.39681 -0.08071,0.48424 -0.41698,0.50441 z"
         style="font-family:'Nimbus Roman';-inkscape-font-specification:'Nimbus Roman, '"
         id="path713" />
      <path
         d="m 83.41126,127.67017 c -0.881037,0 -1.486329,0.64564 -1.486329,1.57376 0,0.91466 0.625468,1.58721 1.472878,1.58721 0.847409,0 1.493054,-0.70617 1.493054,-1.64101 0,-0.88777 -0.618743,-1.51996 -1.479603,-1.51996 z m -0.08743,0.18831 c 0.56494,0 0.961743,0.64565 0.961743,1.56704 0,0.7667 -0.302647,1.21731 -0.807057,1.21731 -0.262293,0 -0.511135,-0.16141 -0.65237,-0.43043 -0.188314,-0.34973 -0.295921,-0.82051 -0.295921,-1.29802 0,-0.63892 0.309372,-1.0559 0.793605,-1.0559 z"
         style="font-family:'Nimbus Roman';-inkscape-font-specification:'Nimbus Roman, '"
         id="path715" />
      <path
         d="m 85.213686,130.76389 h 1.425799 V 130.663 c -0.336273,-0.0202 -0.443881,-0.1076 -0.443881,-0.34972 v -1.88986 c 0.322823,-0.30264 0.470783,-0.38335 0.692724,-0.38335 0.329548,0 0.490959,0.20849 0.490959,0.65237 v 1.40562 c -0.01345,0.43716 -0.09416,0.54477 -0.423705,0.56494 v 0.10089 H 88.35448 V 130.663 c -0.329548,-0.0336 -0.403528,-0.11433 -0.410254,-0.44388 v -1.54013 c 0,-0.63219 -0.29592,-1.00882 -0.793605,-1.00882 -0.309372,0 -0.517861,0.11433 -0.975193,0.54476 v -0.53131 l -0.04708,-0.0135 c -0.349724,0.12778 -0.57839,0.20176 -0.928114,0.30265 v 0.11433 c 0.04708,-0.0202 0.107607,-0.0269 0.181587,-0.0269 0.188313,0 0.248843,0.10088 0.248843,0.43043 v 1.66791 c -0.0067,0.39681 -0.08071,0.48424 -0.416979,0.50441 z"
         style="font-family:'Nimbus Roman';-inkscape-font-specification:'Nimbus Roman, '"
         id="path717" />
      <path
         d="m 88.56297,130.76389 h 1.493054 V 130.663 c -0.342999,-0.007 -0.450606,-0.0807 -0.457332,-0.34972 v -1.89658 c 0,-0.0134 0.0538,-0.0807 0.100882,-0.12779 0.168137,-0.15468 0.457332,-0.26902 0.692724,-0.26902 0.29592,0 0.443881,0.2354 0.443881,0.70618 v 1.45943 c -0.01345,0.38335 -0.08071,0.45733 -0.457332,0.4775 v 0.10089 h 1.506505 V 130.663 c -0.376626,0 -0.470783,-0.1076 -0.484234,-0.53803 v -1.69482 c 0.201764,-0.2892 0.416979,-0.41026 0.733076,-0.41026 0.383352,0 0.504411,0.18159 0.504411,0.73981 v 1.41907 c -0.01345,0.3968 -0.0538,0.44388 -0.443881,0.48423 v 0.10089 h 1.472878 V 130.663 l -0.174863,-0.0135 c -0.215215,-0.0336 -0.289195,-0.13451 -0.289195,-0.3968 v -1.38545 c 0,-0.7936 -0.262293,-1.19713 -0.780154,-1.19713 -0.390078,0 -0.733077,0.17486 -1.096252,0.56494 -0.121058,-0.38335 -0.349724,-0.56494 -0.7129,-0.56494 -0.302646,0 -0.484234,0.0874 -1.042448,0.51786 v -0.50441 l -0.04708,-0.0135 c -0.35645,0.12778 -0.585116,0.20176 -0.941566,0.30265 v 0.11433 c 0.08071,-0.0202 0.141235,-0.0269 0.215215,-0.0269 0.174863,0 0.235392,0.1076 0.235392,0.43043 v 1.70154 c -0.01345,0.37663 -0.100882,0.47078 -0.470783,0.47078 z"
         style="font-family:'Nimbus Roman';-inkscape-font-specification:'Nimbus Roman, '"
         id="path719" />
      <path
         d="m 96.431768,129.66091 c -0.322822,0.51113 -0.612017,0.70617 -1.042448,0.70617 -0.383351,0 -0.672547,-0.19504 -0.867585,-0.57839 -0.121059,-0.25557 -0.168137,-0.47078 -0.181588,-0.88776 h 2.071445 c -0.0538,-0.43716 -0.121059,-0.63219 -0.289195,-0.84741 -0.201764,-0.24212 -0.511136,-0.38335 -0.86086,-0.38335 -0.336274,0 -0.652371,0.12106 -0.907939,0.34972 -0.316097,0.27575 -0.497685,0.75326 -0.497685,1.30474 0,0.92812 0.484234,1.50651 1.257663,1.50651 0.63892,0 1.14333,-0.3968 1.4258,-1.12315 z m -2.07817,-0.97519 c 0.07398,-0.52459 0.302646,-0.77343 0.7129,-0.77343 0.410254,0 0.571665,0.18831 0.659096,0.77343 z"
         style="font-family:'Nimbus Roman';-inkscape-font-specification:'Nimbus Roman, '"
         id="path721" />
      <path
         d="m 96.781495,130.76389 h 1.493054 V 130.663 c -0.342999,-0.007 -0.450606,-0.0807 -0.457332,-0.34972 v -1.89658 c 0,-0.0134 0.0538,-0.0807 0.100882,-0.12779 0.168137,-0.15468 0.457332,-0.26902 0.692724,-0.26902 0.29592,0 0.443881,0.2354 0.443881,0.70618 v 1.45943 c -0.01345,0.38335 -0.08071,0.45733 -0.457332,0.4775 v 0.10089 h 1.506508 V 130.663 c -0.376629,0 -0.470786,-0.1076 -0.484237,-0.53803 v -1.69482 c 0.201764,-0.2892 0.416977,-0.41026 0.733077,-0.41026 0.38335,0 0.50441,0.18159 0.50441,0.73981 v 1.41907 c -0.0134,0.3968 -0.0538,0.44388 -0.44388,0.48423 v 0.10089 h 1.47288 V 130.663 l -0.17487,-0.0135 c -0.21521,-0.0336 -0.28919,-0.13451 -0.28919,-0.3968 v -1.38545 c 0,-0.7936 -0.26229,-1.19713 -0.78016,-1.19713 -0.39007,0 -0.733072,0.17486 -1.096247,0.56494 -0.121058,-0.38335 -0.349724,-0.56494 -0.7129,-0.56494 -0.302646,0 -0.484234,0.0874 -1.042448,0.51786 v -0.50441 l -0.04708,-0.0135 c -0.35645,0.12778 -0.585116,0.20176 -0.941566,0.30265 v 0.11433 c 0.08071,-0.0202 0.141235,-0.0269 0.215215,-0.0269 0.174862,0 0.235392,0.1076 0.235392,0.43043 v 1.70154 c -0.01345,0.37663 -0.100882,0.47078 -0.470783,0.47078 z"
         style="font-family:'Nimbus Roman';-inkscape-font-specification:'Nimbus Roman, '"
         id="path723" />
      <path
         d="m 105.1009,129.8425 -0.0874,-0.0336 c -0.24884,0.39008 -0.32282,0.43715 -0.63892,0.44388 h -1.60739 l 1.12988,-1.18368 c 0.59857,-0.62547 0.86086,-1.13661 0.86086,-1.66119 0,-0.67255 -0.54476,-1.19041 -1.24421,-1.19041 -0.3699,0 -0.71963,0.14796 -0.96847,0.41698 -0.21521,0.22866 -0.3161,0.44388 -0.43043,0.92139 l 0.14124,0.0336 c 0.26901,-0.65909 0.50441,-0.87431 0.97519,-0.87431 0.57166,0 0.94829,0.38335 0.94829,0.94829 0,0.53132 -0.30937,1.15006 -0.87431,1.74863 l -1.19713,1.27111 v 0.0807 h 2.62293 z"
         style="font-family:'Nimbus Roman';-inkscape-font-specification:'Nimbus Roman, '"
         id="path725" />
      <path
         d="m 105.30266,130.76389 h 1.61412 V 130.663 c -0.45061,-0.0135 -0.55822,-0.1076 -0.57167,-0.50441 v -1.51323 c 0,-0.21521 0.28247,-0.55149 0.47079,-0.55149 0.0404,0 0.10088,0.0336 0.17486,0.10089 0.10088,0.10088 0.18159,0.13451 0.26902,0.13451 0.16141,0 0.26229,-0.11434 0.26229,-0.30265 0,-0.22194 -0.14124,-0.35645 -0.3699,-0.35645 -0.28247,0 -0.47078,0.14796 -0.80706,0.63219 v -0.61874 l -0.0336,-0.0135 c -0.37663,0.14796 -0.61875,0.24212 -0.99537,0.36317 v 0.10761 c 0.0941,-0.0202 0.15468,-0.0269 0.23539,-0.0269 0.16813,0 0.22866,0.10761 0.22866,0.40353 v 1.68137 c -0.0134,0.34972 -0.0538,0.39007 -0.47751,0.46405 z"
         style="font-family:'Nimbus Roman';-inkscape-font-specification:'Nimbus Roman, '"
         id="path727" />
      <path
         d="m 109.48591,130.76389 h 1.35182 V 130.663 c -0.20849,0 -0.343,-0.1076 -0.55149,-0.40352 l -0.86086,-1.3182 0.55822,-0.80705 c 0.12778,-0.18159 0.32282,-0.28247 0.54476,-0.29592 v -0.10089 h -1.06262 v 0.10089 c 0.20176,0.0134 0.26901,0.0538 0.26901,0.14796 0,0.0807 -0.0807,0.22866 -0.24884,0.43715 -0.0336,0.0404 -0.11433,0.16141 -0.20176,0.29592 l -0.0538,-0.0807 c -0.10088,-0.15469 -0.16141,-0.24212 -0.17486,-0.26902 -0.12778,-0.20849 -0.17486,-0.3161 -0.17486,-0.38335 0,-0.10089 0.0874,-0.14124 0.2892,-0.14796 v -0.10089 h -1.39218 v 0.10089 h 0.0605 c 0.20177,0 0.30937,0.0874 0.51786,0.40352 l 0.6322,0.96847 -0.76671,1.1097 c -0.20176,0.27575 -0.26901,0.32283 -0.49096,0.343 v 0.10089 h 0.9752 V 130.663 c -0.19504,0 -0.26902,-0.0336 -0.26902,-0.12106 0,-0.0471 0.0404,-0.1345 0.13451,-0.27574 l 0.53131,-0.82723 0.61202,0.94156 c 0.0269,0.0404 0.0404,0.074 0.0404,0.12106 0,0.12106 -0.0471,0.14796 -0.26902,0.16141 z"
         style="font-family:'Nimbus Roman';-inkscape-font-specification:'Nimbus Roman, '"
         id="path729" />
    </g>
    <g
       aria-label="n"
       id="text2179"
       style="font-size:64.6445px;font-family:'Noto Serif';-inkscape-font-specification:'Noto Serif';display:inline;fill:#1b3d64;fill-opacity:1;stroke-width:5.38704"
       transform="matrix(0.31776032,0,0,0.52519023,37.396229,224.95154)">
      <path
         d="m 197.76208,-245.83778 h -4.39583 v 33.80907 h 4.6544 v -18.42368 c 0,-7.04625 1.82425,-12.19653 6.5433,-12.19653 3.94331,0 6.77347,3.59881 6.77347,9.80468 v 20.81553 h 4.65441 l -0.18483,-20.9972 c -0.0977,-11.10049 -7.74157,-12.40253 -10.63432,-12.55617 -3.95154,-0.20987 -6.59837,1.85994 -7.4106,3.7386 z"
         style="font-family:'Nimbus Sans Narrow';-inkscape-font-specification:'Nimbus Sans Narrow';fill:#1b3d64;fill-opacity:1"
         id="path3633"
         sodipodi:nodetypes="ccccsssccsscc" />
    </g>
  </g>
</svg>
